{
  "accessors": [
    {
      "name": "NurbsCurve-Mesh_0_positions",
      "componentType": 5126,
      "count": 2178,
      "min": [
        -24.97575569152832,
        8.426918029785156,
        -27.71451187133789
      ],
      "max": [
        -19.651491165161133,
        11.455418586730957,
        -22.60025405883789
      ],
      "type": "VEC3",
      "bufferView": 0,
      "byteOffset": 0
    },
    {
      "name": "NurbsCurve-Mesh_0_normals",
      "componentType": 5126,
      "count": 2178,
      "min": [
        -0.981663167476654,
        -0.9997979998588562,
        -0.924238383769989
      ],
      "max": [
        0.981663167476654,
        0.9997979998588562,
        0.9146221280097961
      ],
      "type": "VEC3",
      "bufferView": 1,
      "byteOffset": 0
    },
    {
      "name": "NurbsCurve-Mesh_0_indices",
      "componentType": 5123,
      "count": 13056,
      "min": [
        0
      ],
      "max": [
        2177
      ],
      "type": "SCALAR",
      "bufferView": 3,
      "byteOffset": 0
    },
    {
      "name": "Cylinder.005-Mesh_0_positions",
      "componentType": 5126,
      "count": 760,
      "min": [
        -22.458162307739258,
        9.028031349182129,
        -25.556747436523438
      ],
      "max": [
        -22.022708892822266,
        11.584153175354004,
        -23.912158966064453
      ],
      "type": "VEC3",
      "bufferView": 0,
      "byteOffset": 26136
    },
    {
      "name": "Cylinder.005-Mesh_0_normals",
      "componentType": 5126,
      "count": 760,
      "min": [
        -0.995184063911438,
        -0.9108689427375793,
        -0.9913286566734314
      ],
      "max": [
        0.995184063911438,
        0.866019070148468,
        0.8618649244308472
      ],
      "type": "VEC3",
      "bufferView": 1,
      "byteOffset": 26136
    },
    {
      "name": "Cylinder.005-Mesh_0_texcoords",
      "componentType": 5126,
      "count": 760,
      "min": [
        0,
        0
      ],
      "max": [
        1,
        0.9900000095367432
      ],
      "type": "VEC2",
      "bufferView": 2,
      "byteOffset": 0
    },
    {
      "name": "Cylinder.005-Mesh_0_indices",
      "componentType": 5123,
      "count": 1332,
      "min": [
        0
      ],
      "max": [
        759
      ],
      "type": "SCALAR",
      "bufferView": 3,
      "byteOffset": 26112
    },
    {
      "name": "Cylinder.007-Mesh_0_positions",
      "componentType": 5126,
      "count": 460,
      "min": [
        -22.27593421936035,
        10.292999267578125,
        -27.11458969116211
      ],
      "max": [
        -22.216604232788086,
        11.456357955932617,
        -24.20648765563965
      ],
      "type": "VEC3",
      "bufferView": 0,
      "byteOffset": 35256
    },
    {
      "name": "Cylinder.007-Mesh_0_normals",
      "componentType": 5126,
      "count": 460,
      "min": [
        -0.9951419234275818,
        -0.929105818271637,
        -0.9335722327232361
      ],
      "max": [
        0.9951419234275818,
        0.929105818271637,
        0.9335722327232361
      ],
      "type": "VEC3",
      "bufferView": 1,
      "byteOffset": 35256
    },
    {
      "name": "Cylinder.007-Mesh_0_texcoords",
      "componentType": 5126,
      "count": 460,
      "min": [
        0,
        0
      ],
      "max": [
        1,
        0.9900000095367432
      ],
      "type": "VEC2",
      "bufferView": 2,
      "byteOffset": 6080
    },
    {
      "name": "Cylinder.007-Mesh_0_indices",
      "componentType": 5123,
      "count": 1140,
      "min": [
        0
      ],
      "max": [
        459
      ],
      "type": "SCALAR",
      "bufferView": 3,
      "byteOffset": 28776
    },
    {
      "name": "Cylinder.006-Mesh_0_positions",
      "componentType": 5126,
      "count": 320,
      "min": [
        -22.212417602539062,
        8.848454475402832,
        -24.192838668823242
      ],
      "max": [
        -20.65500831604004,
        11.293046951293945,
        -23.82109260559082
      ],
      "type": "VEC3",
      "bufferView": 0,
      "byteOffset": 40776
    },
    {
      "name": "Cylinder.006-Mesh_0_normals",
      "componentType": 5126,
      "count": 320,
      "min": [
        -0.8467113375663757,
        -0.8430408835411072,
        -0.9931175112724304
      ],
      "max": [
        0.8467113375663757,
        0.8430408835411072,
        0.9931175112724304
      ],
      "type": "VEC3",
      "bufferView": 1,
      "byteOffset": 40776
    },
    {
      "name": "Cylinder.006-Mesh_0_texcoords",
      "componentType": 5126,
      "count": 320,
      "min": [
        0,
        0
      ],
      "max": [
        1,
        0.9900000095367432
      ],
      "type": "VEC2",
      "bufferView": 2,
      "byteOffset": 9760
    },
    {
      "name": "Cylinder.006-Mesh_0_indices",
      "componentType": 5123,
      "count": 756,
      "min": [
        0
      ],
      "max": [
        319
      ],
      "type": "SCALAR",
      "bufferView": 3,
      "byteOffset": 31056
    },
    {
      "name": "Cylinder.008-Mesh_0_positions",
      "componentType": 5126,
      "count": 384,
      "min": [
        -23.703092575073242,
        8.714786529541016,
        -24.07061195373535
      ],
      "max": [
        -22.23912239074707,
        11.340940475463867,
        -23.7172794342041
      ],
      "type": "VEC3",
      "bufferView": 0,
      "byteOffset": 44616
    },
    {
      "name": "Cylinder.008-Mesh_0_normals",
      "componentType": 5126,
      "count": 384,
      "min": [
        -0.8782337307929993,
        -0.8742840886116028,
        -0.9916192889213562
      ],
      "max": [
        0.8782337307929993,
        0.8742840886116028,
        0.9916192889213562
      ],
      "type": "VEC3",
      "bufferView": 1,
      "byteOffset": 44616
    },
    {
      "name": "Cylinder.008-Mesh_0_texcoords",
      "componentType": 5126,
      "count": 384,
      "min": [
        0,
        0
      ],
      "max": [
        1,
        0.9900000095367432
      ],
      "type": "VEC2",
      "bufferView": 2,
      "byteOffset": 12320
    },
    {
      "name": "Cylinder.008-Mesh_0_indices",
      "componentType": 5123,
      "count": 948,
      "min": [
        0
      ],
      "max": [
        383
      ],
      "type": "SCALAR",
      "bufferView": 3,
      "byteOffset": 32568
    }
  ],
  "asset": {
    "generator": "obj2gltf",
    "version": "2.0"
  },
  "buffers": [
    {
      "name": "Dish",
      "byteLength": 148304,
      "uri": "data:application/octet-stream;base64,"
    }
  ],
  "bufferViews": [
    {
      "name": "bufferView_0",
      "buffer": 0,
      "byteLength": 49224,
      "byteOffset": 0,
      "byteStride": 12,
      "target": 34962
    },
    {
      "name": "bufferView_1",
      "buffer": 0,
      "byteLength": 49224,
      "byteOffset": 49224,
      "byteStride": 12,
      "target": 34962
    },
    {
      "name": "bufferView_2",
      "buffer": 0,
      "byteLength": 15392,
      "byteOffset": 98448,
      "byteStride": 8,
      "target": 34962
    },
    {
      "name": "bufferView_3",
      "buffer": 0,
      "byteLength": 34464,
      "byteOffset": 113840,
      "target": 34963
    }
  ],
  "materials": [
    {
      "name": "Dark_Grey",
      "pbrMetallicRoughness": {
        "baseColorFactor": [
          0.035065,
          0.049438,
          0.046021,
          1
        ],
        "metallicFactor": 0,
        "roughnessFactor": 1
      },
      "emissiveFactor": [
        0,
        0,
        0
      ],
      "alphaMode": "OPAQUE",
      "doubleSided": false
    },
    {
      "name": "Dark_Grey-2",
      "pbrMetallicRoughness": {
        "baseColorFactor": [
          0.035065,
          0.049438,
          0.046021,
          1
        ],
        "metallicFactor": 0,
        "roughnessFactor": 1
      },
      "emissiveFactor": [
        0,
        0,
        0
      ],
      "alphaMode": "OPAQUE",
      "doubleSided": false
    }
  ],
  "meshes": [
    {
      "name": "NurbsCurve-Mesh",
      "primitives": [
        {
          "attributes": {
            "POSITION": 0,
            "NORMAL": 1
          },
          "indices": 2,
          "material": 0,
          "mode": 4
        }
      ]
    },
    {
      "name": "Cylinder.005-Mesh",
      "primitives": [
        {
          "attributes": {
            "POSITION": 3,
            "NORMAL": 4,
            "TEXCOORD_0": 5
          },
          "indices": 6,
          "material": 1,
          "mode": 4
        }
      ]
    },
    {
      "name": "Cylinder.007-Mesh",
      "primitives": [
        {
          "attributes": {
            "POSITION": 7,
            "NORMAL": 8,
            "TEXCOORD_0": 9
          },
          "indices": 10,
          "material": 1,
          "mode": 4
        }
      ]
    },
    {
      "name": "Cylinder.006-Mesh",
      "primitives": [
        {
          "attributes": {
            "POSITION": 11,
            "NORMAL": 12,
            "TEXCOORD_0": 13
          },
          "indices": 14,
          "material": 1,
          "mode": 4
        }
      ]
    },
    {
      "name": "Cylinder.008-Mesh",
      "primitives": [
        {
          "attributes": {
            "POSITION": 15,
            "NORMAL": 16,
            "TEXCOORD_0": 17
          },
          "indices": 18,
          "material": 1,
          "mode": 4
        }
      ]
    }
  ],
  "nodes": [
    {
      "name": "NurbsCurve",
      "mesh": 0
    },
    {
      "name": "Cylinder.005",
      "mesh": 1
    },
    {
      "name": "Cylinder.007",
      "mesh": 2
    },
    {
      "name": "Cylinder.006",
      "mesh": 3
    },
    {
      "name": "Cylinder.008",
      "mesh": 4
    }
  ],
  "scene": 0,
  "scenes": [
    {
      "nodes": [
        0,
        1,
        2,
        3,
        4
      ]
    }
  ]
}
